<mxfile host="app.diagrams.net" modified="2023-10-29T18:03:11.009Z" agent="Mozilla/5.0 (Windows NT 10.0; Win64; x64) AppleWebKit/537.36 (KHTML, like Gecko) Chrome/116.0.5845.931 YaBrowser/23.9.3.931 Yowser/2.5 Safari/537.36" etag="x_WNxl9HRrrtdU8L7GtG" version="22.0.8" type="github">
  <diagram id="C5RBs43oDa-KdzZeNtuy" name="Page-1">
    <mxGraphModel dx="1904" dy="807" grid="1" gridSize="10" guides="1" tooltips="1" connect="1" arrows="1" fold="1" page="1" pageScale="1" pageWidth="827" pageHeight="1169" math="0" shadow="0">
      <root>
        <mxCell id="WIyWlLk6GJQsqaUBKTNV-0" />
        <mxCell id="WIyWlLk6GJQsqaUBKTNV-1" parent="WIyWlLk6GJQsqaUBKTNV-0" />
        <mxCell id="9b3YMG56cF88GUUHONz2-8" value="" style="edgeStyle=orthogonalEdgeStyle;rounded=0;orthogonalLoop=1;jettySize=auto;html=1;" edge="1" parent="WIyWlLk6GJQsqaUBKTNV-1" source="9b3YMG56cF88GUUHONz2-0" target="9b3YMG56cF88GUUHONz2-2">
          <mxGeometry relative="1" as="geometry" />
        </mxCell>
        <mxCell id="9b3YMG56cF88GUUHONz2-0" value="Start" style="ellipse;whiteSpace=wrap;html=1;" vertex="1" parent="WIyWlLk6GJQsqaUBKTNV-1">
          <mxGeometry x="354" y="60" width="120" height="80" as="geometry" />
        </mxCell>
        <mxCell id="9b3YMG56cF88GUUHONz2-1" value="Finish" style="ellipse;whiteSpace=wrap;html=1;" vertex="1" parent="WIyWlLk6GJQsqaUBKTNV-1">
          <mxGeometry x="354" y="730" width="120" height="80" as="geometry" />
        </mxCell>
        <mxCell id="9b3YMG56cF88GUUHONz2-9" value="" style="edgeStyle=orthogonalEdgeStyle;rounded=0;orthogonalLoop=1;jettySize=auto;html=1;" edge="1" parent="WIyWlLk6GJQsqaUBKTNV-1" source="9b3YMG56cF88GUUHONz2-2" target="9b3YMG56cF88GUUHONz2-3">
          <mxGeometry relative="1" as="geometry" />
        </mxCell>
        <mxCell id="9b3YMG56cF88GUUHONz2-2" value="array[]&lt;br&gt;size&lt;br&gt;max1 = 0&lt;br&gt;max2 = 0" style="rounded=0;whiteSpace=wrap;html=1;" vertex="1" parent="WIyWlLk6GJQsqaUBKTNV-1">
          <mxGeometry x="354" y="170" width="120" height="60" as="geometry" />
        </mxCell>
        <mxCell id="9b3YMG56cF88GUUHONz2-10" value="" style="edgeStyle=orthogonalEdgeStyle;rounded=0;orthogonalLoop=1;jettySize=auto;html=1;" edge="1" parent="WIyWlLk6GJQsqaUBKTNV-1" source="9b3YMG56cF88GUUHONz2-3" target="9b3YMG56cF88GUUHONz2-4">
          <mxGeometry relative="1" as="geometry" />
        </mxCell>
        <mxCell id="9b3YMG56cF88GUUHONz2-3" value="array[]" style="shape=parallelogram;perimeter=parallelogramPerimeter;whiteSpace=wrap;html=1;fixedSize=1;" vertex="1" parent="WIyWlLk6GJQsqaUBKTNV-1">
          <mxGeometry x="354" y="260" width="120" height="60" as="geometry" />
        </mxCell>
        <mxCell id="9b3YMG56cF88GUUHONz2-11" value="" style="edgeStyle=orthogonalEdgeStyle;rounded=0;orthogonalLoop=1;jettySize=auto;html=1;" edge="1" parent="WIyWlLk6GJQsqaUBKTNV-1" source="9b3YMG56cF88GUUHONz2-4" target="9b3YMG56cF88GUUHONz2-6">
          <mxGeometry relative="1" as="geometry" />
        </mxCell>
        <mxCell id="9b3YMG56cF88GUUHONz2-18" style="edgeStyle=orthogonalEdgeStyle;rounded=0;orthogonalLoop=1;jettySize=auto;html=1;entryX=0;entryY=0.5;entryDx=0;entryDy=0;exitX=0;exitY=0.5;exitDx=0;exitDy=0;" edge="1" parent="WIyWlLk6GJQsqaUBKTNV-1" source="9b3YMG56cF88GUUHONz2-4" target="9b3YMG56cF88GUUHONz2-17">
          <mxGeometry relative="1" as="geometry">
            <Array as="points">
              <mxPoint x="170" y="400" />
              <mxPoint x="170" y="650" />
            </Array>
          </mxGeometry>
        </mxCell>
        <mxCell id="9b3YMG56cF88GUUHONz2-4" value="for (i = 0; i &amp;lt; size; i++)" style="shape=hexagon;perimeter=hexagonPerimeter2;whiteSpace=wrap;html=1;fixedSize=1;" vertex="1" parent="WIyWlLk6GJQsqaUBKTNV-1">
          <mxGeometry x="326" y="360" width="176" height="80" as="geometry" />
        </mxCell>
        <mxCell id="9b3YMG56cF88GUUHONz2-12" value="" style="edgeStyle=orthogonalEdgeStyle;rounded=0;orthogonalLoop=1;jettySize=auto;html=1;" edge="1" parent="WIyWlLk6GJQsqaUBKTNV-1" source="9b3YMG56cF88GUUHONz2-6" target="9b3YMG56cF88GUUHONz2-7">
          <mxGeometry relative="1" as="geometry" />
        </mxCell>
        <mxCell id="9b3YMG56cF88GUUHONz2-13" value="yes" style="edgeLabel;html=1;align=center;verticalAlign=middle;resizable=0;points=[];" vertex="1" connectable="0" parent="9b3YMG56cF88GUUHONz2-12">
          <mxGeometry x="-0.1233" y="2" relative="1" as="geometry">
            <mxPoint as="offset" />
          </mxGeometry>
        </mxCell>
        <mxCell id="9b3YMG56cF88GUUHONz2-14" style="edgeStyle=orthogonalEdgeStyle;rounded=0;orthogonalLoop=1;jettySize=auto;html=1;entryX=1;entryY=0.5;entryDx=0;entryDy=0;exitX=0.5;exitY=1;exitDx=0;exitDy=0;" edge="1" parent="WIyWlLk6GJQsqaUBKTNV-1" source="9b3YMG56cF88GUUHONz2-6" target="9b3YMG56cF88GUUHONz2-4">
          <mxGeometry relative="1" as="geometry">
            <Array as="points">
              <mxPoint x="414" y="580" />
              <mxPoint x="760" y="580" />
              <mxPoint x="760" y="400" />
            </Array>
          </mxGeometry>
        </mxCell>
        <mxCell id="9b3YMG56cF88GUUHONz2-21" value="no" style="edgeLabel;html=1;align=center;verticalAlign=middle;resizable=0;points=[];" vertex="1" connectable="0" parent="9b3YMG56cF88GUUHONz2-14">
          <mxGeometry x="-0.5946" y="-1" relative="1" as="geometry">
            <mxPoint as="offset" />
          </mxGeometry>
        </mxCell>
        <mxCell id="9b3YMG56cF88GUUHONz2-6" value="array[i] &amp;gt; max1" style="rhombus;whiteSpace=wrap;html=1;" vertex="1" parent="WIyWlLk6GJQsqaUBKTNV-1">
          <mxGeometry x="311" y="470" width="206" height="80" as="geometry" />
        </mxCell>
        <mxCell id="9b3YMG56cF88GUUHONz2-15" style="edgeStyle=orthogonalEdgeStyle;rounded=0;orthogonalLoop=1;jettySize=auto;html=1;entryX=1;entryY=0.5;entryDx=0;entryDy=0;exitX=0.5;exitY=0;exitDx=0;exitDy=0;" edge="1" parent="WIyWlLk6GJQsqaUBKTNV-1" source="9b3YMG56cF88GUUHONz2-7" target="9b3YMG56cF88GUUHONz2-4">
          <mxGeometry relative="1" as="geometry" />
        </mxCell>
        <mxCell id="9b3YMG56cF88GUUHONz2-7" value="max2 = max1&lt;br&gt;max1 = array[i]" style="rounded=0;whiteSpace=wrap;html=1;" vertex="1" parent="WIyWlLk6GJQsqaUBKTNV-1">
          <mxGeometry x="590" y="480" width="120" height="60" as="geometry" />
        </mxCell>
        <mxCell id="9b3YMG56cF88GUUHONz2-19" value="" style="edgeStyle=orthogonalEdgeStyle;rounded=0;orthogonalLoop=1;jettySize=auto;html=1;" edge="1" parent="WIyWlLk6GJQsqaUBKTNV-1" source="9b3YMG56cF88GUUHONz2-17" target="9b3YMG56cF88GUUHONz2-1">
          <mxGeometry relative="1" as="geometry" />
        </mxCell>
        <mxCell id="9b3YMG56cF88GUUHONz2-17" value="max2" style="shape=document;whiteSpace=wrap;html=1;boundedLbl=1;" vertex="1" parent="WIyWlLk6GJQsqaUBKTNV-1">
          <mxGeometry x="354" y="610" width="120" height="80" as="geometry" />
        </mxCell>
      </root>
    </mxGraphModel>
  </diagram>
</mxfile>
